<svg width="129" height="28" viewBox="0 0 129 28" fill="none" xmlns="http://www.w3.org/2000/svg">
<path d="M54.9748 26.3061H51.0039L49.8521 22.7374H44.0987L42.96 26.3061H39.0127L44.9023 10.2646H49.2239L54.9774 26.3061H54.9748ZM49.0171 19.9628L47.279 14.5716C47.1508 14.1694 47.0618 13.6883 47.0094 13.1283H46.9204C46.8838 13.5992 46.7896 14.065 46.6377 14.5257L44.8787 19.9628H49.0197H49.0171Z" fill="white"/>
<path d="M75.1958 26.3061H71.5966V16.7097C71.5966 15.6737 71.6411 14.5283 71.7327 13.2759H71.6437C71.4552 14.261 71.2877 14.9686 71.1359 15.4014L67.3456 26.3086H64.3668L60.5085 15.5134C60.4038 15.2232 60.2336 14.4774 60.0007 13.2759H59.8986C59.9954 14.8566 60.0452 16.2439 60.0452 17.4377V26.3086H56.7627V10.2672H62.1L65.406 19.7745C65.6703 20.5356 65.8614 21.2992 65.9818 22.0679H66.0499C66.2541 21.1796 66.4661 20.4083 66.6938 19.7516L69.9998 10.2646H75.201V26.3061H75.1958Z" fill="white"/>
<path d="M77.8994 25.6927V22.1138C78.5538 22.6585 79.2632 23.0658 80.0328 23.3382C80.8023 23.6105 81.5745 23.7455 82.3572 23.7455C82.8153 23.7455 83.2157 23.7047 83.5586 23.6233C83.9016 23.5418 84.1869 23.4273 84.4172 23.2822C84.6476 23.1371 84.8177 22.964 84.9303 22.768C85.0428 22.5695 85.1004 22.3556 85.1004 22.124C85.1004 21.8109 85.0114 21.5309 84.8308 21.284C84.6502 21.0371 84.4041 20.8105 84.0926 20.6018C83.7811 20.3931 83.4094 20.192 82.9802 19.9985C82.5509 19.8051 82.0902 19.6065 81.5928 19.4055C80.3286 18.8836 79.3862 18.2473 78.7658 17.4938C78.1455 16.7404 77.834 15.8316 77.834 14.7651C77.834 13.9302 78.0041 13.2124 78.3418 12.6116C78.6795 12.0109 79.1402 11.5171 79.7239 11.1302C80.3076 10.7433 80.9829 10.4582 81.7499 10.2749C82.5168 10.0916 83.3283 10 84.1869 10C85.0454 10 85.7758 10.0509 86.4249 10.1502C87.0741 10.2495 87.6761 10.4047 88.2232 10.6135V13.9582C87.9536 13.7724 87.6578 13.6069 87.3384 13.4669C87.0191 13.3244 86.6893 13.2073 86.3516 13.1156C86.014 13.024 85.6763 12.9527 85.3412 12.9095C85.0062 12.8662 84.6895 12.8433 84.3884 12.8433C83.9748 12.8433 83.5979 12.8815 83.2602 12.9604C82.9226 13.0393 82.6346 13.1487 82.4017 13.2913C82.1687 13.4338 81.9881 13.6018 81.8598 13.8004C81.7316 13.9989 81.6688 14.2204 81.6688 14.4647C81.6688 14.732 81.7394 14.9738 81.8834 15.1851C82.0274 15.3964 82.2289 15.6 82.4933 15.7884C82.755 15.9793 83.077 16.1651 83.4513 16.3484C83.8283 16.5316 84.2523 16.72 84.7261 16.9135C85.3726 17.1807 85.9537 17.4684 86.4694 17.7687C86.9851 18.0716 87.4274 18.4127 87.7939 18.792C88.1604 19.1713 88.4457 19.6065 88.6394 20.0953C88.8331 20.584 88.9326 21.1516 88.9326 21.8007C88.9326 22.6967 88.7624 23.4476 88.4195 24.056C88.0766 24.6644 87.6133 25.1556 87.027 25.5324C86.4406 25.9091 85.7574 26.1789 84.98 26.3444C84.2026 26.5073 83.3807 26.5913 82.5142 26.5913C81.6478 26.5913 80.7814 26.5175 79.9804 26.3673C79.1794 26.2171 78.4858 25.9956 77.8994 25.6953V25.6927Z" fill="white"/>
<path opacity="0.5" d="M99.146 26.1C98.6041 26.4233 97.9602 26.5862 97.2142 26.5862C96.2064 26.5862 95.395 26.2604 94.7772 25.6113C94.1595 24.9622 93.8506 24.1196 93.8506 23.0862C93.8506 21.9331 94.183 21.0065 94.8505 20.3065C95.518 19.6065 96.4054 19.2578 97.5178 19.2578C98.1382 19.2578 98.6853 19.3724 99.1591 19.5989V20.7469C98.6355 20.3829 98.0754 20.1996 97.4759 20.1996C96.7535 20.1996 96.1619 20.4567 95.7012 20.9684C95.2405 21.48 95.0076 22.1545 95.0076 22.9894C95.0076 23.8244 95.2248 24.4582 95.6593 24.9316C96.0939 25.4051 96.675 25.6418 97.4079 25.6418C98.023 25.6418 98.6041 25.4382 99.146 25.0334V26.1Z" fill="white"/>
<path opacity="0.5" d="M101.845 26.4232H100.714V16.0581H101.845V26.4207V26.4232Z" fill="white"/>
<path opacity="0.5" d="M106.944 26.5861C105.9 26.5861 105.067 26.2603 104.444 25.6061C103.821 24.9519 103.51 24.0839 103.51 23.0046C103.51 21.8286 103.834 20.9097 104.481 20.2504C105.127 19.5912 106.004 19.2603 107.109 19.2603C108.214 19.2603 108.983 19.581 109.575 20.225C110.166 20.8664 110.459 21.7573 110.459 22.8977C110.459 24.0381 110.14 24.9086 109.504 25.5806C108.868 26.2526 108.015 26.5886 106.944 26.5886V26.5861ZM107.028 20.2021C106.303 20.2021 105.727 20.4464 105.305 20.9377C104.881 21.4264 104.672 22.1035 104.672 22.9639C104.672 23.8243 104.887 24.4479 105.313 24.9264C105.74 25.405 106.313 25.6443 107.03 25.6443C107.748 25.6443 108.324 25.4101 108.716 24.9392C109.109 24.4708 109.305 23.8013 109.305 22.9359C109.305 22.0704 109.109 21.3857 108.716 20.9123C108.324 20.4388 107.761 20.2021 107.03 20.2021H107.028Z" fill="white"/>
<path opacity="0.5" d="M117.832 26.4233H116.702V25.3161H116.673C116.204 26.1637 115.477 26.5888 114.495 26.5888C112.812 26.5888 111.972 25.5961 111.972 23.6081V19.4233H113.095V23.4299C113.095 24.9062 113.665 25.6444 114.804 25.6444C115.356 25.6444 115.809 25.4433 116.165 25.0386C116.521 24.6364 116.699 24.107 116.699 23.4553V19.4233H117.83V26.4233H117.832Z" fill="white"/>
<path opacity="0.5" d="M126 26.4231H124.869V25.2344H124.841C124.317 26.1355 123.508 26.5885 122.414 26.5885C121.527 26.5885 120.817 26.2755 120.286 25.6493C119.755 25.0231 119.49 24.1704 119.49 23.0885C119.49 21.9304 119.783 21.0038 120.372 20.3064C120.961 19.6089 121.744 19.2602 122.723 19.2602C123.702 19.2602 124.398 19.6395 124.841 20.3955H124.869V16.0605H126V26.4231ZM124.869 23.2591V22.2256C124.869 21.6605 124.681 21.182 124.304 20.79C123.927 20.398 123.448 20.202 122.87 20.202C122.181 20.202 121.637 20.454 121.241 20.9529C120.846 21.4544 120.647 22.1467 120.647 23.03C120.647 23.8369 120.836 24.4733 121.215 24.9416C121.595 25.41 122.103 25.6416 122.741 25.6416C123.38 25.6416 123.883 25.4151 124.275 24.9645C124.668 24.514 124.864 23.9438 124.864 23.2565L124.869 23.2591Z" fill="white"/>
<path opacity="0.5" d="M31.4428 23.0084C31.4428 25.7651 29.155 28 26.3333 28H5.14127C2.32213 28 0.0317383 25.7625 0.0317383 23.0084C0.0317383 22.0538 0.306585 21.1604 0.788221 20.4018L0.782986 20.3916L11.2115 2.64727H11.2167C12.07 1.07418 13.7715 0 15.7216 0C17.567 0 19.1794 0.959636 20.0798 2.39273C20.0851 2.39782 20.0903 2.40291 20.0903 2.408L20.2133 2.61164L30.6968 20.4069V20.412C31.1732 21.1655 31.4428 22.0538 31.4428 23.0084Z" fill="url(#paint0_linear_110_25203)"/>
<path d="M19.2288 23.0109C19.2288 25.7701 16.9358 27.9999 14.1114 27.9999H5.11738C2.29301 27.9999 0 25.7701 0 23.0109C0 22.0538 0.277464 21.1603 0.756483 20.4018L11.198 2.66504C10.8133 3.36249 10.5986 4.16177 10.5986 5.0094C10.5986 5.95377 10.8656 6.83704 11.3368 7.5854L11.3472 7.60068L18.4854 20.4247L18.5063 20.4552C18.9618 21.2036 19.2288 22.0767 19.2288 23.0109Z" fill="white"/>
<defs>
<linearGradient id="paint0_linear_110_25203" x1="31.9087" y1="7.89091" x2="7.70362" y2="22.263" gradientUnits="userSpaceOnUse">
<stop offset="0.24" stop-color="white"/>
<stop offset="0.33" stop-color="#D0E3FC"/>
<stop offset="0.45" stop-color="#98C2F9"/>
<stop offset="0.57" stop-color="#6AA7F6"/>
<stop offset="0.68" stop-color="#4692F4"/>
<stop offset="0.78" stop-color="#2C83F3"/>
<stop offset="0.88" stop-color="#1D7AF2"/>
<stop offset="0.95" stop-color="#1877F2"/>
</linearGradient>
</defs>
</svg>
